<svg id="svg" version="1.1" xmlns="http://www.w3.org/2000/svg" xmlns:xlink="http://www.w3.org/1999/xlink" width="400"
    height="400" viewBox="0, 0, 400,400">
    <g id="svgg">
        <path id="path0"
            d="M233.600 5.205 C 207.426 7.171,177.661 18.153,159.344 32.604 C 156.955 34.489,153.650 37.095,152.000 38.394 C 150.350 39.694,147.579 42.116,145.843 43.778 C 142.105 47.356,142.234 47.334,135.197 45.615 C 113.455 40.306,91.910 44.524,72.000 57.987 C 41.614 78.535,24.795 120.867,27.973 168.800 C 29.906 197.962,38.203 226.017,53.524 255.200 C 58.323 264.341,68.142 279.696,75.138 289.000 C 81.661 297.675,82.146 298.274,91.382 309.031 C 97.090 315.680,117.281 335.965,123.200 340.997 C 125.510 342.961,129.200 346.119,131.400 348.014 C 142.407 357.495,160.146 370.733,170.600 377.268 C 193.055 391.305,198.089 393.973,201.069 393.413 C 202.921 393.066,210.296 389.233,218.508 384.351 C 221.978 382.288,226.372 379.700,228.273 378.600 C 240.317 371.629,269.313 352.202,283.400 341.664 C 290.772 336.149,292.162 335.053,300.878 327.882 C 349.171 288.153,372.157 252.919,372.171 218.600 C 372.186 181.449,346.186 159.593,299.400 157.427 C 271.666 156.143,239.418 165.616,222.800 179.930 C 206.527 193.945,198.134 208.531,194.562 229.000 C 191.996 243.704,197.435 249.181,207.026 241.551 C 212.694 237.042,224.252 230.349,230.600 227.899 C 267.357 213.718,285.347 227.878,268.603 257.811 C 262.773 268.234,259.545 272.431,249.423 282.745 C 236.372 296.044,231.270 300.311,210.623 315.188 C 205.919 318.578,201.275 321.200,199.976 321.200 C 198.562 321.200,193.496 318.062,186.882 313.089 C 183.867 310.822,180.050 307.966,178.400 306.742 C 163.315 295.557,142.197 272.959,132.927 258.083 C 103.579 210.989,99.243 155.038,120.853 102.293 C 124.844 92.554,133.641 76.822,138.353 71.000 C 139.600 69.460,141.245 67.360,142.010 66.333 C 144.704 62.716,145.963 62.625,150.600 65.709 C 158.845 71.192,165.923 77.973,172.311 86.505 C 178.508 94.782,182.092 100.990,186.155 110.483 C 189.397 118.056,191.677 124.527,193.616 131.658 C 195.433 138.343,196.655 139.779,200.472 139.722 C 205.975 139.639,207.701 135.466,205.485 127.600 C 196.771 96.669,179.494 69.491,160.800 57.305 C 154.607 53.268,154.415 52.763,157.875 49.601 C 173.748 35.094,199.845 22.720,222.000 19.197 C 223.650 18.934,225.974 18.559,227.164 18.362 C 252.189 14.220,287.844 20.702,309.210 33.278 C 342.853 53.080,352.044 87.602,329.017 107.674 C 312.975 121.657,278.749 122.595,254.332 109.720 C 242.894 103.690,226.254 86.851,229.434 84.526 C 233.371 81.647,247.300 81.404,257.529 84.036 C 268.938 86.971,274.792 90.888,285.105 102.489 C 289.543 107.481,291.477 108.305,296.189 107.212 C 299.235 106.506,299.373 105.068,296.883 100.000 C 285.099 76.020,255.721 64.332,226.056 71.821 C 211.024 75.615,209.687 79.684,218.936 93.494 C 231.929 112.894,249.503 124.609,272.400 129.132 C 312.287 137.012,345.145 122.119,352.558 92.800 C 364.844 44.208,304.632 -0.129,233.600 5.205 M272.725 36.700 C 265.772 43.410,263.073 57.394,267.435 64.100 C 268.935 66.405,270.001 66.183,273.200 62.900 C 279.982 55.939,281.988 44.723,278.045 35.809 C 276.926 33.278,276.133 33.411,272.725 36.700 M236.040 40.952 C 232.847 44.800,234.885 56.922,239.339 60.572 C 244.593 64.877,247.394 63.077,247.398 55.392 C 247.402 48.257,238.923 37.478,236.040 40.952 M307.749 55.591 C 298.020 58.142,291.443 64.764,289.554 73.910 C 288.891 77.120,289.262 77.600,292.411 77.600 C 300.374 77.600,309.634 69.860,312.406 60.887 C 314.202 55.071,313.365 54.119,307.749 55.591 M127.557 57.078 C 131.451 58.029,131.791 58.583,130.019 61.084 C 122.794 71.283,117.124 80.354,114.714 85.571 C 105.788 104.888,102.904 113.099,99.175 129.800 C 88.060 179.592,97.541 229.016,126.107 270.200 C 140.471 290.910,161.467 311.250,184.634 326.900 C 188.135 329.266,191.990 331.912,193.200 332.780 C 198.795 336.797,201.770 336.526,209.093 331.335 C 210.905 330.051,215.564 326.840,219.448 324.200 C 266.140 292.463,293.358 253.649,285.967 229.345 C 278.925 206.191,247.930 203.230,213.170 222.389 C 208.782 224.808,208.393 223.611,211.143 216.156 C 221.455 188.206,252.283 170.867,293.000 170.114 C 339.858 169.247,364.514 191.001,358.973 228.322 C 354.991 255.139,329.983 289.053,292.200 318.876 C 275.401 332.136,269.460 336.584,260.292 342.763 C 257.382 344.726,253.200 347.599,251.000 349.150 C 236.675 359.244,202.708 379.600,200.190 379.600 C 197.322 379.600,169.399 361.940,157.438 352.561 C 154.379 350.163,150.959 347.491,149.838 346.625 C 128.177 329.890,107.593 309.737,92.408 290.400 C 89.903 287.210,86.926 283.430,85.792 282.000 C 79.033 273.477,69.152 257.668,62.468 244.683 C 27.654 177.050,34.444 101.090,78.200 68.695 C 91.702 58.699,113.334 53.608,127.557 57.078 M312.508 87.816 C 308.865 88.797,304.395 92.488,303.753 95.044 C 302.940 98.285,310.936 100.672,317.106 99.030 C 321.128 97.959,326.800 93.487,326.800 91.386 C 326.800 88.812,317.466 86.481,312.508 87.816 "
            stroke="none" fill="#cfa652" fill-rule="evenodd"></path>

    </g>
</svg>